<svg width="256" height="256" viewBox="0 0 256 256" fill="none" xmlns="http://www.w3.org/2000/svg">
<rect width="256" height="256" rx="57" fill="white"/>
<line x1="35.5" y1="170.5" x2="220.5" y2="170.5" stroke="black" stroke-width="15" stroke-linecap="round"/>
<g opacity="0.25" clip-path="url(#clip0_301_23)">
<path d="M39.625 106.719C39.0034 106.719 38.4073 106.472 37.9677 106.032C37.5282 105.593 37.2812 104.997 37.2812 104.375V93.8281C37.2812 92.5391 38.3359 91.4844 39.625 91.4844H41.9688M39.625 106.719H58.375C58.9966 106.719 59.5927 106.472 60.0323 106.032C60.4718 105.593 60.7188 104.997 60.7188 104.375V85.625C60.7188 85.0034 60.4718 84.4073 60.0323 83.9677C59.5927 83.5282 58.9966 83.2813 58.375 83.2813H44.3125C43.6909 83.2813 43.0948 83.5282 42.6552 83.9677C42.2157 84.4073 41.9688 85.0034 41.9688 85.625V104.375C41.9688 104.997 41.7218 105.593 41.2823 106.032C40.8427 106.472 40.2466 106.719 39.625 106.719Z" stroke="black" stroke-width="2" stroke-linecap="round" stroke-linejoin="round"/>
<path d="M56.0313 97.3438H46.6562" stroke="black" stroke-width="2" stroke-linecap="round" stroke-linejoin="round"/>
<path d="M52.5156 102.031H46.6562" stroke="black" stroke-width="2" stroke-linecap="round" stroke-linejoin="round"/>
<path d="M46.6562 87.9688H56.0313V92.6563H46.6562V87.9688Z" stroke="black" stroke-width="2" stroke-linecap="round" stroke-linejoin="round"/>
</g>
<g opacity="0.5">
<path d="M194 147.5C194 146.837 194.263 146.201 194.732 145.732C195.201 145.263 195.837 145 196.5 145H210" stroke="black" stroke-width="2" stroke-linecap="round" stroke-linejoin="round"/>
<path d="M196.5 130H210V150H196.5C195.837 150 195.201 149.737 194.732 149.268C194.263 148.799 194 148.163 194 147.5V132.5C194 131.837 194.263 131.201 194.732 130.732C195.201 130.263 195.837 130 196.5 130V130Z" stroke="black" stroke-width="2" stroke-linecap="round" stroke-linejoin="round"/>
</g>
<path d="M128 148.833V169.667" stroke="black" stroke-width="2" stroke-linecap="round" stroke-linejoin="round"/>
<path d="M98.8333 148.833H157.167V141.5C157.166 139.95 156.733 138.43 155.915 137.113C155.098 135.795 153.93 134.732 152.542 134.042L145.125 130.292C143.737 129.602 142.568 128.538 141.751 127.221C140.934 125.903 140.501 124.384 140.5 122.833V103H144.667C146.877 103 148.996 102.122 150.559 100.559C152.122 98.9964 153 96.8768 153 94.6667C153 92.4565 152.122 90.3369 150.559 88.7741C148.996 87.2113 146.877 86.3333 144.667 86.3333H111.333C109.123 86.3333 107.004 87.2113 105.441 88.7741C103.878 90.3369 103 92.4565 103 94.6667C103 96.8768 103.878 98.9964 105.441 100.559C107.004 102.122 109.123 103 111.333 103H115.5V122.833C115.499 124.384 115.066 125.903 114.249 127.221C113.432 128.538 112.263 129.602 110.875 130.292L103.458 134.042C102.07 134.732 100.902 135.795 100.084 137.113C99.2674 138.43 98.8342 139.95 98.8333 141.5V148.833Z" stroke="black" stroke-width="2" stroke-linecap="round" stroke-linejoin="round"/>
<g opacity="0.75">
<path d="M165 51L158 47L151 51V35C151 34.4696 151.211 33.9609 151.586 33.5858C151.961 33.2107 152.47 33 153 33H163C163.53 33 164.039 33.2107 164.414 33.5858C164.789 33.9609 165 34.4696 165 35V51Z" stroke="black" stroke-width="2" stroke-linecap="round" stroke-linejoin="round"/>
</g>
<g opacity="0.75">
<path d="M92 44L95.09 50.26L102 51.27L97 56.14L98.18 63.02L92 59.77L85.82 63.02L87 56.14L82 51.27L88.91 50.26L92 44Z" stroke="black" stroke-width="2" stroke-linecap="round" stroke-linejoin="round"/>
</g>
<defs>
<clipPath id="clip0_301_23">
<rect width="24" height="24" fill="white" transform="translate(37 83)"/>
</clipPath>
</defs>
</svg>
